<mxfile host="app.diagrams.net" modified="2024-04-14T14:55:34.469Z" agent="Mozilla/5.0 (X11; Linux x86_64; rv:124.0) Gecko/20100101 Firefox/124.0" etag="DH-QNMKoxlnVfR0icfS_" version="24.2.2" type="device">
  <diagram name="Page-1" id="2YBvvXClWsGukQMizWep">
    <mxGraphModel dx="783" dy="406" grid="1" gridSize="10" guides="1" tooltips="1" connect="1" arrows="1" fold="1" page="1" pageScale="1" pageWidth="600" pageHeight="500" math="0" shadow="0">
      <root>
        <mxCell id="0" />
        <mxCell id="1" parent="0" />
        <mxCell id="Q2cc-fF_ZDFOVpW6K_zl-11" value="&lt;div style=&quot;font-size: 10px;&quot;&gt;&lt;font style=&quot;font-size: 10px;&quot;&gt;Atomic.get p&lt;/font&gt;&lt;/div&gt;" style="html=1;verticalAlign=bottom;endArrow=block;edgeStyle=elbowEdgeStyle;elbow=vertical;curved=0;rounded=0;movable=1;resizable=1;rotatable=1;deletable=1;editable=1;locked=0;connectable=1;fontSize=10;fontFamily=Courier New;fontStyle=1;labelBackgroundColor=none;spacingTop=0;spacingBottom=-2;spacingLeft=10;" parent="1" source="DNtsb4znVkOIR9AeQRQe-14" target="DNtsb4znVkOIR9AeQRQe-22" edge="1">
          <mxGeometry relative="1" as="geometry">
            <mxPoint x="126.5" y="151" as="sourcePoint" />
            <Array as="points">
              <mxPoint x="256.5" y="151" />
            </Array>
            <mxPoint x="341.5" y="151" as="targetPoint" />
          </mxGeometry>
        </mxCell>
        <mxCell id="Q2cc-fF_ZDFOVpW6K_zl-12" value="&lt;font style=&quot;font-size: 10px;&quot;&gt;Done v&lt;br style=&quot;font-size: 10px;&quot;&gt;&lt;/font&gt;" style="html=1;verticalAlign=top;endArrow=block;edgeStyle=elbowEdgeStyle;elbow=vertical;curved=0;rounded=0;labelPosition=center;verticalLabelPosition=bottom;align=center;fontSize=10;fontFamily=Courier New;fontStyle=1;labelBackgroundColor=none;spacingTop=-7;spacingLeft=-25;" parent="1" edge="1">
          <mxGeometry x="0.0031" relative="1" as="geometry">
            <mxPoint x="316.5" y="157" as="sourcePoint" />
            <Array as="points">
              <mxPoint x="266.5" y="157" />
            </Array>
            <mxPoint x="116.5" y="157" as="targetPoint" />
            <mxPoint as="offset" />
          </mxGeometry>
        </mxCell>
        <mxCell id="aM9ryv3xv72pqoxQDRHE-7" value="&lt;div style=&quot;font-size: 10px;&quot;&gt;&lt;font style=&quot;font-size: 10px;&quot;&gt;Atomic.get p&lt;/font&gt;&lt;/div&gt;" style="html=1;verticalAlign=bottom;endArrow=block;edgeStyle=elbowEdgeStyle;elbow=vertical;curved=0;rounded=0;fontSize=10;fontFamily=Courier New;fontStyle=1;labelBackgroundColor=none;spacingBottom=-2;" parent="1" source="DNtsb4znVkOIR9AeQRQe-18" edge="1" target="DNtsb4znVkOIR9AeQRQe-22">
          <mxGeometry relative="1" as="geometry">
            <mxPoint x="168.99999999999994" y="104" as="sourcePoint" />
            <Array as="points">
              <mxPoint x="254" y="104" />
            </Array>
            <mxPoint x="316.5" y="104" as="targetPoint" />
          </mxGeometry>
        </mxCell>
        <mxCell id="aM9ryv3xv72pqoxQDRHE-9" value="&lt;div style=&quot;font-size: 10px;&quot;&gt;&lt;font style=&quot;font-size: 10px;&quot;&gt;Waiting bcst&lt;/font&gt;&lt;/div&gt;" style="html=1;verticalAlign=middle;endArrow=block;edgeStyle=elbowEdgeStyle;elbow=vertical;curved=0;rounded=0;labelPosition=center;verticalLabelPosition=middle;align=center;fontSize=10;fontFamily=Courier New;fontStyle=1;labelBackgroundColor=none;spacing=2;spacingLeft=2;spacingTop=2;spacingBottom=1;" parent="1" target="DNtsb4znVkOIR9AeQRQe-18" edge="1" source="DNtsb4znVkOIR9AeQRQe-22">
          <mxGeometry x="0.0169" y="5" relative="1" as="geometry">
            <mxPoint x="301.5" y="125" as="sourcePoint" />
            <Array as="points">
              <mxPoint x="264" y="110" />
            </Array>
            <mxPoint x="181.5" y="115" as="targetPoint" />
            <mxPoint as="offset" />
          </mxGeometry>
        </mxCell>
        <mxCell id="Q2cc-fF_ZDFOVpW6K_zl-23" value="&lt;font size=&quot;1&quot; face=&quot;Courier New&quot;&gt;&lt;b&gt;signal_all bcst&lt;/b&gt;&lt;/font&gt;" style="html=1;verticalAlign=bottom;endArrow=block;edgeStyle=elbowEdgeStyle;elbow=vertical;curved=0;rounded=0;" parent="1" edge="1" source="DNtsb4znVkOIR9AeQRQe-4">
          <mxGeometry relative="1" as="geometry">
            <mxPoint x="481.5" y="275.0000000000001" as="sourcePoint" />
            <Array as="points">
              <mxPoint x="411.5" y="275.0000000000001" />
            </Array>
            <mxPoint x="326.5" y="275.0000000000001" as="targetPoint" />
          </mxGeometry>
        </mxCell>
        <mxCell id="DNtsb4znVkOIR9AeQRQe-20" value="Promise p" style="rounded=1;whiteSpace=wrap;html=1;fontFamily=Inconsolata;fontStyle=1;fontSize=14;arcSize=2;fillColor=#FFFFFF;" vertex="1" parent="1">
          <mxGeometry x="271.5" y="55" width="100" height="20" as="geometry" />
        </mxCell>
        <mxCell id="DNtsb4znVkOIR9AeQRQe-21" value="" style="endArrow=none;html=1;rounded=0;entryX=0.5;entryY=1;entryDx=0;entryDy=0;" edge="1" parent="1" target="DNtsb4znVkOIR9AeQRQe-20" source="DNtsb4znVkOIR9AeQRQe-22">
          <mxGeometry width="50" height="50" relative="1" as="geometry">
            <mxPoint x="321.5" y="195" as="sourcePoint" />
            <mxPoint x="94" y="165" as="targetPoint" />
          </mxGeometry>
        </mxCell>
        <mxCell id="DNtsb4znVkOIR9AeQRQe-22" value="" style="html=1;points=[];perimeter=orthogonalPerimeter;outlineConnect=0;targetShapes=umlLifeline;portConstraint=eastwest;newEdgeStyle={&quot;edgeStyle&quot;:&quot;elbowEdgeStyle&quot;,&quot;elbow&quot;:&quot;vertical&quot;,&quot;curved&quot;:0,&quot;rounded&quot;:0};fillColor=#FFFFFF;" vertex="1" parent="1">
          <mxGeometry x="316.5" y="85" width="10" height="80" as="geometry" />
        </mxCell>
        <mxCell id="DNtsb4znVkOIR9AeQRQe-1" value="Promise&#39;s Fiber" style="rounded=1;whiteSpace=wrap;html=1;fontSize=14;fontFamily=Inconsolata;fontStyle=1;arcSize=2;fillColor=#E6E6E6;" vertex="1" parent="1">
          <mxGeometry x="431.5" y="55" width="120" height="20" as="geometry" />
        </mxCell>
        <mxCell id="DNtsb4znVkOIR9AeQRQe-2" value="" style="endArrow=none;html=1;rounded=0;entryX=0.5;entryY=1;entryDx=0;entryDy=0;" edge="1" parent="1" target="DNtsb4znVkOIR9AeQRQe-1">
          <mxGeometry width="50" height="50" relative="1" as="geometry">
            <mxPoint x="491.5" y="335" as="sourcePoint" />
            <mxPoint x="266.5" y="165" as="targetPoint" />
          </mxGeometry>
        </mxCell>
        <mxCell id="DNtsb4znVkOIR9AeQRQe-4" value="" style="html=1;points=[];perimeter=orthogonalPerimeter;outlineConnect=0;targetShapes=umlLifeline;portConstraint=eastwest;newEdgeStyle={&quot;edgeStyle&quot;:&quot;elbowEdgeStyle&quot;,&quot;elbow&quot;:&quot;vertical&quot;,&quot;curved&quot;:0,&quot;rounded&quot;:0};fillColor=#E6E6E6;strokeColor=#000000;" vertex="1" parent="1">
          <mxGeometry x="486.5" y="85" width="10" height="240" as="geometry" />
        </mxCell>
        <mxCell id="DNtsb4znVkOIR9AeQRQe-8" value="Broadcast" style="rounded=1;whiteSpace=wrap;html=1;fontSize=14;fontFamily=Inconsolata;fontStyle=1;arcSize=2;fillColor=#FFFFFF;" vertex="1" parent="1">
          <mxGeometry x="271.5" y="185" width="100" height="20" as="geometry" />
        </mxCell>
        <mxCell id="DNtsb4znVkOIR9AeQRQe-9" value="" style="endArrow=none;html=1;rounded=0;entryX=0.5;entryY=1;entryDx=0;entryDy=0;" edge="1" parent="1" target="DNtsb4znVkOIR9AeQRQe-8">
          <mxGeometry width="50" height="50" relative="1" as="geometry">
            <mxPoint x="321.5" y="325" as="sourcePoint" />
            <mxPoint x="94" y="295" as="targetPoint" />
          </mxGeometry>
        </mxCell>
        <mxCell id="DNtsb4znVkOIR9AeQRQe-10" value="" style="html=1;points=[];perimeter=orthogonalPerimeter;outlineConnect=0;targetShapes=umlLifeline;portConstraint=eastwest;newEdgeStyle={&quot;edgeStyle&quot;:&quot;elbowEdgeStyle&quot;,&quot;elbow&quot;:&quot;vertical&quot;,&quot;curved&quot;:0,&quot;rounded&quot;:0};fillColor=#FFFFFF;" vertex="1" parent="1">
          <mxGeometry x="316.5" y="215" width="10" height="110" as="geometry" />
        </mxCell>
        <mxCell id="DNtsb4znVkOIR9AeQRQe-16" value="Fiber" style="rounded=1;whiteSpace=wrap;html=1;fontSize=14;fontFamily=Inconsolata;fontStyle=1;arcSize=2;fillColor=#E6E6E6;" vertex="1" parent="1">
          <mxGeometry x="131.5" y="55" width="60" height="20" as="geometry" />
        </mxCell>
        <mxCell id="DNtsb4znVkOIR9AeQRQe-17" value="" style="endArrow=none;html=1;rounded=0;entryX=0.5;entryY=1;entryDx=0;entryDy=0;" edge="1" parent="1" target="DNtsb4znVkOIR9AeQRQe-16">
          <mxGeometry width="50" height="50" relative="1" as="geometry">
            <mxPoint x="161.5" y="335" as="sourcePoint" />
            <mxPoint x="-61" y="165" as="targetPoint" />
          </mxGeometry>
        </mxCell>
        <mxCell id="DNtsb4znVkOIR9AeQRQe-18" value="" style="html=1;points=[];perimeter=orthogonalPerimeter;outlineConnect=0;targetShapes=umlLifeline;portConstraint=eastwest;newEdgeStyle={&quot;edgeStyle&quot;:&quot;elbowEdgeStyle&quot;,&quot;elbow&quot;:&quot;vertical&quot;,&quot;curved&quot;:0,&quot;rounded&quot;:0};fillColor=#E6E6E6;strokeColor=default;" vertex="1" parent="1">
          <mxGeometry x="156.5" y="85" width="10" height="240" as="geometry" />
        </mxCell>
        <mxCell id="DNtsb4znVkOIR9AeQRQe-25" value="&lt;div style=&quot;font-size: 10px;&quot;&gt;&lt;font style=&quot;font-size: 10px;&quot;&gt;Atomic.set p (Done v)&lt;/font&gt;&lt;br style=&quot;font-size: 10px;&quot;&gt;&lt;/div&gt;" style="html=1;verticalAlign=bottom;endArrow=block;edgeStyle=elbowEdgeStyle;elbow=vertical;curved=0;rounded=0;fontSize=10;fontFamily=Courier New;fontStyle=1;labelBackgroundColor=none;spacingLeft=4;spacingBottom=-2;" edge="1" parent="1" source="DNtsb4znVkOIR9AeQRQe-4" target="DNtsb4znVkOIR9AeQRQe-22">
          <mxGeometry relative="1" as="geometry">
            <mxPoint x="486.5" y="129.57999999999998" as="sourcePoint" />
            <Array as="points">
              <mxPoint x="346.5" y="129.57999999999998" />
            </Array>
            <mxPoint x="331.5" y="129.57999999999998" as="targetPoint" />
          </mxGeometry>
        </mxCell>
        <mxCell id="Q2cc-fF_ZDFOVpW6K_zl-14" value="" style="endArrow=classic;html=1;rounded=0;labelPosition=center;verticalLabelPosition=top;align=center;verticalAlign=bottom;" parent="1" edge="1">
          <mxGeometry width="50" height="50" relative="1" as="geometry">
            <mxPoint x="106.5" y="184" as="sourcePoint" />
            <mxPoint x="49" y="184" as="targetPoint" />
          </mxGeometry>
        </mxCell>
        <mxCell id="Q2cc-fF_ZDFOVpW6K_zl-16" value="&lt;font style=&quot;font-size: 10px;&quot; face=&quot;Verdana&quot;&gt;&lt;i&gt;return&lt;/i&gt;&lt;/font&gt;&lt;font face=&quot;Courier New&quot; style=&quot;font-size: 10px;&quot;&gt;&lt;b&gt; v&lt;/b&gt;&lt;br&gt;&lt;/font&gt;" style="edgeLabel;html=1;align=center;verticalAlign=bottom;resizable=0;points=[];labelPosition=center;verticalLabelPosition=top;spacingLeft=3;spacingBottom=-1;labelBackgroundColor=none;" parent="Q2cc-fF_ZDFOVpW6K_zl-14" vertex="1" connectable="0">
          <mxGeometry x="0.2116" y="1" relative="1" as="geometry">
            <mxPoint x="7" y="-1" as="offset" />
          </mxGeometry>
        </mxCell>
        <mxCell id="DNtsb4znVkOIR9AeQRQe-12" value="Fiber" style="rounded=1;whiteSpace=wrap;html=1;fontSize=14;fontFamily=Inconsolata;fontStyle=1;arcSize=2;fillColor=#E6E6E6;" vertex="1" parent="1">
          <mxGeometry x="81.5" y="85" width="60" height="20" as="geometry" />
        </mxCell>
        <mxCell id="DNtsb4znVkOIR9AeQRQe-13" value="" style="endArrow=none;html=1;rounded=0;entryX=0.5;entryY=1;entryDx=0;entryDy=0;" edge="1" parent="1" target="DNtsb4znVkOIR9AeQRQe-12">
          <mxGeometry width="50" height="50" relative="1" as="geometry">
            <mxPoint x="111.5" y="205" as="sourcePoint" />
            <mxPoint x="-116" y="187.66666666666663" as="targetPoint" />
          </mxGeometry>
        </mxCell>
        <mxCell id="DNtsb4znVkOIR9AeQRQe-14" value="" style="html=1;points=[];perimeter=orthogonalPerimeter;outlineConnect=0;targetShapes=umlLifeline;portConstraint=eastwest;newEdgeStyle={&quot;edgeStyle&quot;:&quot;elbowEdgeStyle&quot;,&quot;elbow&quot;:&quot;vertical&quot;,&quot;curved&quot;:0,&quot;rounded&quot;:0};fillColor=#E6E6E6;strokeColor=default;" vertex="1" parent="1">
          <mxGeometry x="106.5" y="115" width="10" height="80" as="geometry" />
        </mxCell>
        <mxCell id="DNtsb4znVkOIR9AeQRQe-29" value="&lt;i&gt;Suspend Effect&lt;/i&gt;" style="html=1;direction=west;horizontal=0;spacingBottom=50;shape=mxgraph.basic.patternFillRect;fillStyle=diag;step=5;fillStrokeWidth=0.2;fillStrokeColor=#808080;fillColor=#FFCCCC;" vertex="1" parent="1">
          <mxGeometry x="146.5" y="225" width="30" height="90" as="geometry" />
        </mxCell>
        <mxCell id="Q2cc-fF_ZDFOVpW6K_zl-28" value="&lt;div style=&quot;font-size: 10px;&quot;&gt;&lt;font style=&quot;font-size: 10px;&quot;&gt;register bcst waker&lt;br style=&quot;font-size: 10px;&quot;&gt;&lt;/font&gt;&lt;/div&gt;" style="html=1;verticalAlign=bottom;endArrow=block;edgeStyle=elbowEdgeStyle;elbow=vertical;curved=0;rounded=0;fontFamily=Courier New;fontSize=10;fontStyle=1;spacingBottom=-2;labelBackgroundColor=none;" parent="1" edge="1">
          <mxGeometry relative="1" as="geometry">
            <mxPoint x="166.5" y="246" as="sourcePoint" />
            <Array as="points" />
            <mxPoint x="316.5" y="246" as="targetPoint" />
            <mxPoint as="offset" />
          </mxGeometry>
        </mxCell>
        <mxCell id="Q2cc-fF_ZDFOVpW6K_zl-31" value="Registered handle" style="html=1;verticalAlign=top;endArrow=block;edgeStyle=elbowEdgeStyle;elbow=vertical;curved=0;rounded=0;labelPosition=center;verticalLabelPosition=bottom;align=center;fontFamily=Courier New;fontSize=10;fontStyle=1;labelBackgroundColor=none;spacingTop=-6;" parent="1" edge="1">
          <mxGeometry relative="1" as="geometry">
            <mxPoint x="316.5" y="252" as="sourcePoint" />
            <Array as="points">
              <mxPoint x="301.5" y="252" />
            </Array>
            <mxPoint x="166.5" y="252" as="targetPoint" />
          </mxGeometry>
        </mxCell>
        <mxCell id="Q2cc-fF_ZDFOVpW6K_zl-30" value="try_unregister handle" style="html=1;verticalAlign=bottom;endArrow=block;edgeStyle=elbowEdgeStyle;elbow=vertical;curved=0;rounded=0;dashed=1;fontFamily=Courier New;fontSize=10;fontStyle=1;spacingLeft=4;spacingBottom=-2;labelBackgroundColor=none;" parent="1" edge="1" target="DNtsb4znVkOIR9AeQRQe-10" source="DNtsb4znVkOIR9AeQRQe-18">
          <mxGeometry relative="1" as="geometry">
            <mxPoint x="171.5" y="299" as="sourcePoint" />
            <Array as="points">
              <mxPoint x="191.5" y="299" />
              <mxPoint x="321.5" y="279" />
            </Array>
            <mxPoint x="341.5" y="299" as="targetPoint" />
          </mxGeometry>
        </mxCell>
        <mxCell id="DNtsb4znVkOIR9AeQRQe-35" value="&lt;font size=&quot;1&quot; face=&quot;Courier New&quot;&gt;&lt;b&gt;suspend/signal_all/try_unregister&lt;/b&gt;&lt;/font&gt;&lt;div align=&quot;center&quot;&gt;can race&amp;nbsp;&amp;nbsp;&amp;nbsp; &lt;br&gt;&lt;/div&gt;" style="ellipse;whiteSpace=wrap;html=1;fillColor=#FFF2CC;opacity=25;spacingTop=158;" vertex="1" parent="1">
          <mxGeometry x="150" y="200" width="346.5" height="130" as="geometry" />
        </mxCell>
      </root>
    </mxGraphModel>
  </diagram>
</mxfile>
